<?xml version="1.0" encoding="UTF-8"?>
<svg width="32px" height="32px" viewBox="0 0 32 32" version="1.1" xmlns="http://www.w3.org/2000/svg" xmlns:xlink="http://www.w3.org/1999/xlink">
    <!-- Generator: Sketch 57.1 (83088) - https://sketch.com -->
    <title>ic_li_01</title>
    <desc>Created with Sketch.</desc>
    <g id="页面-1" stroke="none" stroke-width="1" fill="none" fill-rule="evenodd">
        <g id="设备监控系统" transform="translate(-1671.000000, -274.000000)" fill-rule="nonzero">
            <g id="喷胶机实时稼动率" transform="translate(877.000000, 64.000000)">
                <g id="编组-18" transform="translate(786.000000, 154.000000)">
                    <g id="编组-15" transform="translate(0.000000, 48.000000)">
                        <g id="ic_li_01" transform="translate(8.000000, 8.000000)">
                            <path d="M0,16 C0,24.836556 7.163444,32 16,32 C24.836556,32 32,24.836556 32,16 C32,7.163444 24.836556,0 16,0 C7.163444,0 0,7.163444 0,16 Z" id="路径" fill="#522A07" opacity="0.4"></path>
                            <g id="咖啡-等待" transform="translate(6.000000, 6.000000)" fill="#FFFFFF">
                                <path d="M17.7956995,6.54872074 C17.3619897,6.14926316 16.7940451,5.92730782 16.2044094,5.92683723 L2.37403375,5.92683723 C1.07524762,5.92683723 0.0223734349,6.97971142 0.0223734349,8.27849755 L0.0223734349,11.5825803 C0.0230914892,16.0686934 3.65733006,19.7064399 8.14344039,19.7114861 L10.4336962,19.7114861 C13.82227,19.7076414 16.8536043,17.6038204 18.0426238,14.4307022 C20.1520917,14.2781276 21.7654729,12.4883994 21.6991931,10.3744598 C21.6329133,8.26052019 19.9105821,6.57537879 17.7956995,6.55525313 L17.7956995,6.54872074 Z M5.09934676,12.459227 C5.09934676,12.8921557 4.7483887,13.2431138 4.31545999,13.2431138 C3.88253128,13.2431138 3.53157322,12.8921557 3.53157322,12.459227 L3.53157322,9.96124115 C3.53157322,9.52831244 3.88253128,9.17735438 4.31545999,9.17735438 C4.7483887,9.17735438 5.09934676,9.52831244 5.09934676,9.96124115 L5.09934676,12.459227 Z M18.4698421,12.7623299 C18.5275147,12.3730462 18.5563358,11.9800322 18.5560697,11.5864997 L18.5560697,8.25106151 C19.525316,8.58901693 20.1675531,9.51165818 20.1479368,10.5379464 C20.1283205,11.5642347 19.4512951,12.4616598 18.4698421,12.7623299 L18.4698421,12.7623299 Z M4.64991835,5.52052259 C4.21698964,5.52052259 3.86603157,5.16956453 3.86603157,4.73663582 L3.86603157,2.23734349 C3.86603157,1.80441479 4.21698964,1.45345672 4.64991835,1.45345672 C5.08284705,1.45345672 5.43380512,1.80441479 5.43380512,2.23734349 L5.43380512,4.73663582 C5.43380512,5.16956453 5.08284705,5.52052259 4.64991835,5.52052259 L4.64991835,5.52052259 Z M13.5039194,5.52052259 C13.0709907,5.52052259 12.7200327,5.16956453 12.7200327,4.73663582 L12.7200327,2.23734349 C12.7200327,1.80441479 13.0709907,1.45345672 13.5039194,1.45345672 C13.9368481,1.45345672 14.2878062,1.80441479 14.2878062,2.23734349 L14.2878062,4.73663582 C14.2878062,4.94453552 14.2052184,5.14392019 14.0582111,5.29092747 C13.9112038,5.43793476 13.7118191,5.52052259 13.5039194,5.52052259 Z M9.07757213,5.52052259 C8.64464342,5.52052259 8.29368536,5.16956453 8.29368536,4.73663582 L8.29368536,0.800217746 C8.29368536,0.367289037 8.64464342,0.0163309744 9.07757213,0.0163309744 C9.51050084,0.0163309744 9.8614589,0.367289037 9.8614589,0.800217746 L9.8614589,4.73663582 C9.8614589,5.16956453 9.51050084,5.52052259 9.07757213,5.52052259 Z" id="形状"></path>
                            </g>
                        </g>
                    </g>
                </g>
            </g>
        </g>
    </g>
</svg>