<?xml version="1.0" encoding="UTF-8"?>
<svg width="32px" height="32px" viewBox="0 0 32 32" version="1.1" xmlns="http://www.w3.org/2000/svg" xmlns:xlink="http://www.w3.org/1999/xlink">
    <!-- Generator: Sketch 57.1 (83088) - https://sketch.com -->
    <title>ic_sm_001</title>
    <desc>Created with Sketch.</desc>
    <g id="页面-1" stroke="none" stroke-width="1" fill="none" fill-rule="evenodd">
        <g id="设备监控系统" transform="translate(-988.000000, -741.000000)">
            <g id="喷胶机实时稼动率" transform="translate(0.000000, 580.000000)">
                <g id="编组-18" transform="translate(980.000000, 153.000000)">
                    <g id="编组-15">
                        <g id="ic_sm_001" transform="translate(8.000000, 8.000000)">
                            <path d="M0,16 C0,24.836556 7.163444,32 16,32 C24.836556,32 32,24.836556 32,16 C32,7.163444 24.836556,0 16,0 C7.163444,0 0,7.163444 0,16 Z" id="路径" fill="#0E2C49" fill-rule="nonzero" opacity="0.4"></path>
                            <path d="M12,8.90856833 L12,23.0914317 C12,23.6437164 12.4477153,24.0914317 13,24.0914317 C13.2034045,24.0914317 13.4019724,24.0294037 13.56921,23.9136239 L23.8123891,16.8221922 C24.2664733,16.5078262 24.3797373,15.8848742 24.0653713,15.43079 C23.9969371,15.3319407 23.9112384,15.246242 23.8123891,15.1778078 L13.56921,8.08637614 C13.1151258,7.77201015 12.4921738,7.88527414 12.1778078,8.33935835 C12.062028,8.50659591 12,8.70516387 12,8.90856833 Z" id="路径-2" fill="#FFFFFF"></path>
                        </g>
                    </g>
                </g>
            </g>
        </g>
    </g>
</svg>