<?xml version="1.0" encoding="UTF-8"?>
<svg width="32px" height="32px" viewBox="0 0 32 32" version="1.1" xmlns="http://www.w3.org/2000/svg" xmlns:xlink="http://www.w3.org/1999/xlink">
    <!-- Generator: Sketch 57.1 (83088) - https://sketch.com -->
    <title>ic_sm_002</title>
    <desc>Created with Sketch.</desc>
    <g id="页面-1" stroke="none" stroke-width="1" fill="none" fill-rule="evenodd">
        <g id="设备监控系统" transform="translate(-988.000000, -789.000000)" fill-rule="nonzero">
            <g id="喷胶机实时稼动率" transform="translate(0.000000, 580.000000)">
                <g id="编组-18" transform="translate(980.000000, 153.000000)">
                    <g id="编组-15" transform="translate(0.000000, 48.000000)">
                        <g id="ic_sm_002" transform="translate(8.000000, 8.000000)">
                            <path d="M0,16 C0,24.836556 7.163444,32 16,32 C24.836556,32 32,24.836556 32,16 C32,7.163444 24.836556,0 16,0 C7.163444,0 0,7.163444 0,16 Z" id="路径" fill="#522A07" opacity="0.4"></path>
                            <path d="M23.7956995,12.5487207 C23.3619897,12.1492632 22.7940451,11.9273078 22.2044094,11.9268372 L8.37403375,11.9268372 C7.07524762,11.9268372 6.02237343,12.9797114 6.02237343,14.2784976 L6.02237343,17.5825803 C6.02309149,22.0686934 9.65733006,25.7064399 14.1434404,25.7114861 L16.4336962,25.7114861 C19.82227,25.7076414 22.8536043,23.6038204 24.0426238,20.4307022 C26.1520917,20.2781276 27.7654729,18.4883994 27.6991931,16.3744598 C27.6329133,14.2605202 25.9105821,12.5753788 23.7956995,12.5552531 L23.7956995,12.5487207 Z M11.0993468,18.459227 C11.0993468,18.8921557 10.7483887,19.2431138 10.31546,19.2431138 C9.88253128,19.2431138 9.53157322,18.8921557 9.53157322,18.459227 L9.53157322,15.9612412 C9.53157322,15.5283124 9.88253128,15.1773544 10.31546,15.1773544 C10.7483887,15.1773544 11.0993468,15.5283124 11.0993468,15.9612412 L11.0993468,18.459227 Z M24.4698421,18.7623299 C24.5275147,18.3730462 24.5563358,17.9800322 24.5560697,17.5864997 L24.5560697,14.2510615 C25.525316,14.5890169 26.1675531,15.5116582 26.1479368,16.5379464 C26.1283205,17.5642347 25.4512951,18.4616598 24.4698421,18.7623299 L24.4698421,18.7623299 Z M10.6499183,11.5205226 C10.2169896,11.5205226 9.86603157,11.1695645 9.86603157,10.7366358 L9.86603157,8.23734349 C9.86603157,7.80441479 10.2169896,7.45345672 10.6499183,7.45345672 C11.0828471,7.45345672 11.4338051,7.80441479 11.4338051,8.23734349 L11.4338051,10.7366358 C11.4338051,11.1695645 11.0828471,11.5205226 10.6499183,11.5205226 L10.6499183,11.5205226 Z M19.5039194,11.5205226 C19.0709907,11.5205226 18.7200327,11.1695645 18.7200327,10.7366358 L18.7200327,8.23734349 C18.7200327,7.80441479 19.0709907,7.45345672 19.5039194,7.45345672 C19.9368481,7.45345672 20.2878062,7.80441479 20.2878062,8.23734349 L20.2878062,10.7366358 C20.2878062,10.9445355 20.2052184,11.1439202 20.0582111,11.2909275 C19.9112038,11.4379348 19.7118191,11.5205226 19.5039194,11.5205226 Z M15.0775721,11.5205226 C14.6446434,11.5205226 14.2936854,11.1695645 14.2936854,10.7366358 L14.2936854,6.80021775 C14.2936854,6.36728904 14.6446434,6.01633097 15.0775721,6.01633097 C15.5105008,6.01633097 15.8614589,6.36728904 15.8614589,6.80021775 L15.8614589,10.7366358 C15.8614589,11.1695645 15.5105008,11.5205226 15.0775721,11.5205226 Z" id="形状" fill="#FFFFFF"></path>
                        </g>
                    </g>
                </g>
            </g>
        </g>
    </g>
</svg>