<?xml version="1.0" encoding="UTF-8"?>
<svg width="32px" height="32px" viewBox="0 0 32 32" version="1.1" xmlns="http://www.w3.org/2000/svg" xmlns:xlink="http://www.w3.org/1999/xlink">
    <!-- Generator: Sketch 57.1 (83088) - https://sketch.com -->
    <title>ic_sm_003</title>
    <desc>Created with Sketch.</desc>
    <g id="页面-1" stroke="none" stroke-width="1" fill="none" fill-rule="evenodd">
        <g id="设备监控系统" transform="translate(-988.000000, -837.000000)" fill-rule="nonzero">
            <g id="喷胶机实时稼动率" transform="translate(0.000000, 580.000000)">
                <g id="编组-18" transform="translate(980.000000, 153.000000)">
                    <g id="编组-15" transform="translate(0.000000, 96.000000)">
                        <g id="ic_sm_003" transform="translate(8.000000, 8.000000)">
                            <path d="M0,16 C0,24.836556 7.163444,32 16,32 C24.836556,32 32,24.836556 32,16 C32,7.163444 24.836556,0 16,0 C7.163444,0 0,7.163444 0,16 Z" id="路径" fill="#000000" opacity="0.4"></path>
                            <g id="编组-3" transform="translate(6.000136, 6.000166)" fill="#FFFFFF">
                                <path d="M16.5841995,2.57492103 C16.1762834,2.17506387 15.5679429,2.05970816 15.0419622,2.28247644 C14.5159815,2.50524472 14.1755433,3.0224361 14.1788986,3.59363669 C14.1782152,4.01446847 14.364899,4.41376438 14.6882565,4.68309652 C16.5808051,6.39725969 17.4027466,8.99827186 16.8388785,11.4886832 C16.2712269,14.0742877 14.2861829,16.1141672 11.7170024,16.7520475 C9.59677449,17.3041633 7.34037921,16.842757 5.60709021,15.5026422 C3.87380121,14.1625273 2.85923797,12.0949498 2.8598356,9.90401435 C2.87284111,7.92474816 3.71442527,6.04144704 5.18024352,4.71139417 C5.4918071,4.43312957 5.67586781,4.03944417 5.68960136,3.62193436 C5.69890825,3.05165042 5.36488925,2.5315408 4.84242085,2.30276766 C4.31995244,2.07399451 3.71120871,2.18129678 3.29844929,2.57492103 C0.135734299,5.42809237 -0.869808975,9.97292072 0.794106591,13.8939841 C1.76205438,16.3016375 3.69788098,18.1912508 6.12821505,19.1007531 C10.5977436,21.0129986 15.7943846,19.3986511 18.3936543,15.2904683 C20.992924,11.1822856 20.2262913,5.79494214 16.5841995,2.57492103 Z" id="路径"></path>
                                <path d="M9.93425001,8.48913146 C10.7156682,8.48913146 11.3491329,7.85566682 11.3491329,7.07424859 L11.3491329,1.41471707 C11.3490413,0.633363587 10.7156035,4.52970994e-14 9.93425001,4.52970994e-14 C9.15289652,4.52970994e-14 8.5194587,0.633363587 8.51936712,1.41471707 L8.51936712,7.07424859 C8.51936712,7.85566683 9.15283178,8.48913146 9.93425001,8.48913146 L9.93425001,8.48913146 Z" id="路径"></path>
                            </g>
                        </g>
                    </g>
                </g>
            </g>
        </g>
    </g>
</svg>