<?xml version="1.0" encoding="UTF-8"?>
<svg width="32px" height="32px" viewBox="0 0 32 32" version="1.1" xmlns="http://www.w3.org/2000/svg" xmlns:xlink="http://www.w3.org/1999/xlink">
    <!-- Generator: Sketch 57.1 (83088) - https://sketch.com -->
    <title>ic_li_03</title>
    <desc>Created with Sketch.</desc>
    <g id="页面-1" stroke="none" stroke-width="1" fill="none" fill-rule="evenodd">
        <g id="设备监控系统" transform="translate(-1671.000000, -370.000000)" fill-rule="nonzero">
            <g id="喷胶机实时稼动率" transform="translate(877.000000, 64.000000)">
                <g id="编组-18" transform="translate(786.000000, 154.000000)">
                    <g id="编组-15" transform="translate(0.000000, 144.000000)">
                        <g id="ic_li_03" transform="translate(8.000000, 8.000000)">
                            <path d="M0,16 C0,24.836556 7.163444,32 16,32 C24.836556,32 32,24.836556 32,16 C32,7.163444 24.836556,0 16,0 C7.163444,0 0,7.163444 0,16 Z" id="路径" fill="#000000" opacity="0.4"></path>
                            <path d="M25.8886844,22.7158132 C26.0373552,22.9808856 26.0370881,23.3072269 25.8879836,23.5720425 C25.7388792,23.836858 25.4635602,24.0000013 25.1656228,24.0000013 L6.83457275,24.0000013 C6.53608386,24.0000013 6.26030548,23.8363969 6.1113427,23.5708438 C5.96237992,23.3052906 5.96292145,22.9782747 6.11276286,22.7132431 L15.3160473,6.42703025 C15.4655618,6.16225332 15.7413044,5.99947374 16.0394143,6.00000128 C16.3375241,6.00053396 16.6127158,6.16429323 16.761336,6.42960032 L25.8886844,22.7158132 Z M15.8071284,10.5914278 C15.4614828,10.5914278 15.1812817,10.8790946 15.1812817,11.2339496 L15.1812817,18.3291031 C15.1812817,18.683958 15.4614828,18.9716248 15.8071284,18.9716248 L16.1876432,18.9716248 C16.353628,18.9716248 16.5128146,18.9039308 16.6301836,18.7834346 C16.7475527,18.6629384 16.8134899,18.4995104 16.8134899,18.3291031 L16.8134899,11.2339496 C16.8134899,11.0635422 16.7475527,10.9001143 16.6301836,10.7796181 C16.5128146,10.6591219 16.353628,10.5914278 16.1876432,10.5914278 L15.8071284,10.5914278 Z M15.1812817,20.4519949 L15.1812817,20.8430765 C15.1812817,21.1979314 15.4614828,21.4855982 15.8071284,21.4855982 L16.1876432,21.4855982 C16.5332888,21.4855982 16.8134899,21.1979314 16.8134899,20.8430765 L16.8134899,20.4524232 C16.8134899,20.0975683 16.5332888,19.809901 16.1876432,19.809901 L15.8071284,19.809901 C15.4614828,19.8094732 15.1812817,20.09714 15.1812817,20.4519949 Z" id="形状" fill="#FFFFFF"></path>
                        </g>
                    </g>
                </g>
            </g>
        </g>
    </g>
</svg>