<?xml version="1.0" encoding="UTF-8"?>
<svg width="215px" height="45px" viewBox="0 0 215 45" version="1.1" xmlns="http://www.w3.org/2000/svg" xmlns:xlink="http://www.w3.org/1999/xlink">
    <!-- Generator: Sketch 57.1 (83088) - https://sketch.com -->
    <title>logo</title>
    <desc>Created with Sketch.</desc>
    <defs>
        <polygon id="path-1" points="0.165842697 0.496011236 33.8005618 0.496011236 33.8005618 30.3067416 0.165842697 30.3067416"></polygon>
        <polygon id="path-3" points="0.112247191 0.0333707865 26.8776404 0.0333707865 26.8776404 44.9696629 0.112247191 44.9696629"></polygon>
        <polygon id="path-5" points="0 0.48488764 57.5489326 0.48488764 57.5489326 10.0820225 0 10.0820225"></polygon>
    </defs>
    <g id="页面-1" stroke="none" stroke-width="1" fill="none" fill-rule="evenodd">
        <g id="设备监控系统" transform="translate(-8.000000, -5.000000)">
            <g id="logo" transform="translate(8.000000, 5.000000)">
                <path d="M77.1310112,24.9431461 L93.2096629,24.9431461 L93.2096629,22.9424157 L77.1310112,22.9424157 L77.1310112,24.9431461 Z M91.6766292,28.6159551 L77.1310112,28.6159551 L77.1310112,26.5687079 L93.2096629,26.5687079 L93.2096629,27.2234831 C93.2096629,27.7407303 93.0938764,28.114382 92.8638202,28.3343258 C92.6641011,28.5249438 92.346573,28.6215169 91.9223596,28.6215169 C91.8566292,28.6215169 91.7873596,28.6205056 91.6766292,28.6159551 Z M102.131292,38.4052247 C97.9366854,36.8064607 95.9501124,35.0671348 94.4479213,33.4557303 L101.478539,33.4557303 C101.800112,33.4557303 102.058989,33.2069663 102.058989,32.9025843 L102.058989,32.3792697 C102.058989,32.0769101 101.800112,31.8281461 101.478539,31.8281461 L84.728427,31.8281461 C85.1647753,31.3108989 85.5915169,30.7617978 85.9646629,30.2394944 L93.949382,30.2384831 C95.5714045,30.295618 96.7419101,29.9497753 97.4725281,29.2232022 C98.082809,28.6189888 98.3664607,27.7614607 98.3174157,26.7037079 L98.3174157,21.831573 C98.3174157,21.5266854 98.0570225,21.2804494 97.7379775,21.2804494 L72.6011798,21.2804494 C72.2811236,21.2804494 72.0227528,21.5266854 72.0227528,21.831573 L72.0227528,29.689382 C72.0227528,29.9922472 72.2811236,30.2394944 72.6011798,30.2394944 L79.8168539,30.2394944 C79.4512921,30.7516854 78.9896629,31.3382022 78.5452247,31.8281461 L68.7134831,31.8281461 C68.3939326,31.8281461 68.1350562,32.0769101 68.1350562,32.3792697 L68.1350562,32.9025843 C68.1350562,33.2069663 68.3939326,33.4557303 68.7134831,33.4557303 L76.8827528,33.4557303 C74.9841573,35.1156742 72.1066854,37.0719101 68.0890449,38.4052247 C67.8564607,38.4820787 67.6990973,38.6903933 67.6990973,38.9265169 L67.6990973,39.7127528 C67.6990973,39.8816292 67.6815169,40.1511236 68.0829775,40.0545506 C74.2186517,38.5917978 80.0145506,36.1011236 83.0876966,33.4557303 L87.7601124,33.4557303 C90.8373034,36.3069101 96.1301124,38.7025281 102.106517,40.0651685 C102.277921,40.105618 102.49382,40.1086517 102.49382,39.7850562 L102.49382,38.9189326 C102.49382,38.693427 102.352247,38.4911798 102.131292,38.4052247 L102.131292,38.4052247 Z" id="Fill-1" fill="#FFFFFE"></path>
                <path d="M78.4496629,37.6144382 L77.327191,37.6144382 C77.1588202,37.6144382 77.0126966,37.6953371 76.8867978,37.7878652 C75.1489888,39.0867978 73.6417416,40.7801124 72.7730899,42.9972472 C72.7073596,43.1691573 72.4864045,43.7460674 73.2792135,43.7460674 L76.3872472,43.7460674 C76.6739326,43.7460674 76.9383708,43.5680899 76.9580899,43.3173034 C77.1310112,41.3666292 77.7458427,39.5282022 78.6392697,37.9319663 C78.7211798,37.7848315 78.6822472,37.6144382 78.4491573,37.6144382 L78.4496629,37.6144382" id="Fill-2" fill="#FFFFFE"></path>
                <g id="编组" transform="translate(68.258427, 14.662921)">
                    <mask id="mask-2" fill="white">
                        <use xlink:href="#path-1"></use>
                    </mask>
                    <g id="Clip-4"></g>
                    <path d="M0.745786517,4.09752809 L8.23297753,4.09752809 L8.23297753,5.3888764 C8.23297753,5.69426966 8.49235955,5.94 8.81089888,5.94 L12.7582584,5.94 C13.0783146,5.94 13.3382022,5.69426966 13.3382022,5.3888764 L13.3382022,4.09752809 L20.3511236,4.09752809 L20.3511236,5.3888764 C20.3511236,5.69426966 20.6105056,5.94 20.9305618,5.94 L24.8662921,5.94 C25.1848315,5.94 25.4442135,5.69426966 25.4442135,5.3888764 L25.4442135,4.09752809 L33.2201124,4.09752809 C33.5416854,4.09752809 33.8005618,3.8502809 33.8005618,3.54488764 L33.8005618,3.02410112 C33.8005618,2.7197191 33.5416854,2.47196629 33.2201124,2.47196629 L25.4442135,2.47196629 L25.4442135,1.04713483 C25.4442135,0.742752809 25.1848315,0.496011236 24.8662921,0.496011236 L20.9305618,0.496011236 C20.6105056,0.496011236 20.3511236,0.742752809 20.3511236,1.04713483 L20.3511236,2.47196629 L13.3382022,2.47196629 L13.3382022,1.04713483 C13.3382022,0.742752809 13.077809,0.496011236 12.7582584,0.496011236 L8.81089888,0.496011236 C8.49235955,0.496011236 8.23297753,0.742752809 8.23297753,1.04713483 L8.23297753,2.47196629 L0.745786517,2.47196629 C0.425730337,2.47196629 0.165842697,2.7197191 0.165842697,3.02410112 L0.165842697,3.54488764 C0.165842697,3.8502809 0.425730337,4.09752809 0.745786517,4.09752809" id="Fill-3" fill="#FFFFFE" mask="url(#mask-2)"></path>
                    <path d="M17.6556742,19.9835393 L13.7310674,19.9835393 C13.41,19.9835393 13.1526404,20.2297753 13.1526404,20.5366854 L13.1526404,27.7083708 C13.1839888,28.125 13.1142135,28.4223034 12.9438202,28.5977528 C12.7668539,28.778764 12.4341573,28.8723034 11.9629213,28.8723034 C11.8901124,28.8723034 11.8147753,28.8717978 11.7020225,28.8647191 L11.464382,28.8647191 C11.1448315,28.8647191 10.8844382,29.1124719 10.8844382,29.4178652 L10.8844382,29.7798876 C10.8844382,30.0862921 11.1448315,30.3320225 11.464382,30.3320225 L13.3296067,30.3320225 C13.4307303,30.3350562 13.5298315,30.3370787 13.6309551,30.3370787 C15.237809,30.3370787 16.5610112,29.8997191 17.3619101,29.1038764 C17.9752247,28.4941011 18.2780899,27.6825843 18.2351124,26.7810674 L18.2351124,20.5366854 C18.2351124,20.2297753 17.9752247,19.9835393 17.6556742,19.9835393" id="Fill-5" fill="#FFFFFE" mask="url(#mask-2)"></path>
                </g>
                <path d="M93.364382,37.733764 C93.2602247,37.6569101 93.128764,37.613427 92.9897191,37.613427 L91.7807865,37.613427 C91.5638764,37.613427 91.4910674,37.834382 91.6174719,37.9885955 C92.6150562,39.2041011 93.6546067,41.0688202 94.4691573,43.3891011 C94.5424719,43.6004494 94.77,43.7460674 95.0243258,43.7460674 L98.2183146,43.7460674 C98.5403933,43.7460674 98.7957303,43.4376404 98.5378652,42.9340449 C97.761236,41.4348876 96.0198876,39.6849438 93.364382,37.733764" id="Fill-6" fill="#FFFFFE"></path>
                <path d="M88.8911798,37.7671348 C88.7804494,37.6685393 88.6317978,37.613427 88.4720225,37.613427 L87.4542135,37.613427 C87.248427,37.613427 87.1781461,37.823764 87.2767416,37.9805056 C88.217191,39.4660112 88.626236,41.2948315 88.8689326,43.296573 C88.9007865,43.5514045 89.1490449,43.7460674 89.4453371,43.7460674 L92.7783708,43.7460674 C93.098427,43.7460674 93.3401124,43.4457303 93.0746629,42.9320225 C92.2348315,41.3008989 90.6790449,39.3790449 88.8911798,37.7671348" id="Fill-7" fill="#FFFFFE"></path>
                <path d="M129.400787,36.4823596 C129.222809,36.4242135 129.025618,36.4510112 128.874438,36.5536517 C128.721236,36.6593258 128.631236,36.8251685 128.631236,37.0036517 L128.631236,40.8392697 C128.662079,41.3479213 128.551348,41.7225843 128.296517,41.9789326 C127.947135,42.3318539 127.289326,42.5113483 126.342303,42.5113483 C126.244719,42.5113483 126.144607,42.5093258 126.020225,42.5042697 L122.331742,42.5062921 C121.378146,42.5796067 120.685449,42.4314607 120.319382,42.0618539 C120.016011,41.7589888 119.877978,41.2609551 119.917416,40.5581461 L119.917416,33.4390449 C119.917416,33.1336517 119.656517,32.8858989 119.338483,32.8858989 L114.444607,32.8858989 C114.124551,32.8858989 113.86264,33.1336517 113.86264,33.4390449 L113.86264,39.9251124 C113.815618,41.1891573 114.153371,42.186236 114.872865,42.8966292 C115.697528,43.7111798 117.014157,44.1252809 118.784831,44.1252809 L128.435056,44.1192135 C128.694438,44.1328652 128.943202,44.1389326 129.183371,44.1389326 C130.878202,44.1389326 132.012809,43.8011798 132.757079,43.0665169 C133.426011,42.4066854 133.729888,41.4647191 133.684382,40.2047191 L133.684382,39.0483708 C133.684382,37.8829213 130.534382,36.8585393 129.400787,36.4823596" id="Fill-8" fill="#FFFFFE"></path>
                <path d="M111.399775,32.8869101 L110.860787,32.8869101 C110.580169,32.8869101 110.340506,33.0744944 110.290955,33.3374157 C109.851573,35.567191 107.907978,38.5832022 105.256011,41.8853933 C105.121517,42.0502247 105.08309,42.4976966 105.427416,42.4976966 L109.934494,42.4976966 C110.190337,42.4976966 110.415337,42.3374157 110.488146,42.1033146 C111.183371,39.9241011 111.977697,37.3484831 111.977697,33.4390449 C111.977697,33.1336517 111.71882,32.8869101 111.399775,32.8869101" id="Fill-9" fill="#FFFFFE"></path>
                <path d="M114.283315,23.4500562 L120.257191,23.4500562 L120.257191,18.5314045 L114.283315,18.5314045 L114.283315,23.4500562 Z M114.283315,30.1247191 L120.257191,30.1247191 L120.257191,25.0746067 L114.283315,25.0746067 L114.283315,30.1247191 Z M131.371685,28.4607303 C131.405562,29.0346067 131.29382,29.4593258 131.033933,29.7166854 C130.762416,29.9902247 130.284607,30.1317978 129.609101,30.1317978 C129.532247,30.1317978 129.449831,30.1307865 129.338596,30.1247191 L125.340674,30.1247191 L125.340674,25.0766292 L131.368652,25.0766292 L131.371685,28.4607303 Z M125.340674,23.4500562 L131.368652,23.4500562 L131.368652,18.5314045 L125.340674,18.5314045 L125.340674,23.4500562 Z M109.804045,31.7533146 L131.390393,31.7533146 L131.714494,31.7573596 C133.427022,31.7573596 134.700674,31.3564045 135.501573,30.5671348 C136.200843,29.8779775 136.528483,28.907191 136.479438,27.7043258 L136.479438,17.4589888 C136.479438,17.1541011 136.221573,16.9083708 135.902528,16.9083708 L109.804045,16.9083708 C109.482978,16.9083708 109.225112,17.1541011 109.225112,17.4589888 L109.225112,31.2011798 C109.225112,31.5060674 109.482978,31.7533146 109.804045,31.7533146 L109.804045,31.7533146 Z" id="Fill-10" fill="#FFFFFE"></path>
                <path d="M140.197247,41.6750562 C139.288652,38.4168539 137.00882,35.3260112 135.158764,33.0952247 C135.051573,32.9627528 134.883708,32.8869101 134.706742,32.8869101 L133.828989,32.8869101 C133.508933,32.8869101 133.407303,33.0249438 133.515506,33.3374157 C134.546966,36.2947753 135.009101,38.8592697 135.342809,42.0006742 C135.372135,42.2823034 135.621404,42.4976966 135.919213,42.4976966 L139.67191,42.4976966 C139.677978,42.4976966 139.683034,42.4976966 139.689607,42.4976966 C140.268539,42.4976966 140.344382,42.1432584 140.197247,41.6750562" id="Fill-11" fill="#FFFFFE"></path>
                <path d="M123.548764,32.8869101 L122.588596,32.8869101 C122.41264,32.8869101 122.312022,33.0628652 122.349438,33.2236517 C122.944045,35.7613483 123.12809,36.8201124 123.12809,38.4456742 C123.12809,38.7520787 123.388483,38.9998315 123.708539,38.9998315 L127.264551,38.9998315 C127.585618,38.9998315 127.696348,38.7439888 127.637697,38.4052247 C127.275674,36.5804494 126.01264,34.9341573 123.950225,33.0421348 C123.844045,32.9420225 123.697416,32.8869101 123.548764,32.8869101" id="Fill-12" fill="#FFFFFE"></path>
                <path d="M144.375674,18.533427 C156.821461,18.533427 164.316742,18.533427 176.85,18.533427 C177.171573,18.533427 177.430449,18.2861798 177.430449,17.9812921 L177.430449,17.4605056 C177.430449,17.1561236 177.171573,16.9083708 176.85,16.9083708 C164.202472,16.9083708 156.930169,16.9083708 144.375674,16.9083708 C144.055618,16.9083708 143.79573,17.1561236 143.79573,17.4605056 L143.79573,17.9807865 C143.79573,18.2861798 144.055618,18.533427 144.375674,18.533427" id="Fill-13" fill="#FFFFFE"></path>
                <path d="M143.79573,27.0227528 L143.79573,27.4762921 C143.79573,27.7114045 143.909494,27.9126404 144.068764,27.9551124 C145.421292,28.3242135 147.249607,29.9588764 149.25236,32.1876404 C149.351966,32.3014045 149.623483,32.333764 149.623483,32.0435393 L149.623483,28.2544382 C149.623483,28.0390449 149.526404,27.8504494 149.384326,27.7882584 C148.063146,27.2047753 146.501798,26.5358427 144.130955,26.5358427 C143.944888,26.5358427 143.79573,26.7542697 143.79573,27.0227528" id="Fill-14" fill="#FFFFFE"></path>
                <path d="M149.922809,34.7986517 L149.922809,35.2759551 C149.922809,35.5226966 149.802978,35.7350562 149.636124,35.7795506 C148.214326,36.1673596 146.291461,37.8859551 144.186067,40.2289888 C144.080393,40.3488202 143.79573,40.3832022 143.79573,40.0783146 L143.79573,36.0945506 C143.79573,35.8680337 143.896854,35.6688202 144.047022,35.6046067 C145.436461,34.9902809 147.077697,34.2879775 149.570899,34.2879775 C149.765562,34.2879775 149.922809,34.5175281 149.922809,34.7986517" id="Fill-15" fill="#FFFFFE"></path>
                <path d="M156.120169,23.6426966 C167.685674,23.6426966 159.901685,23.6426966 171.547584,23.6426966 C171.84691,23.6426966 172.08809,23.4045506 172.08809,23.1092697 L172.08809,22.6076966 C172.08809,22.313427 171.84691,22.0747753 171.547584,22.0747753 C159.795,22.0747753 167.787303,22.0747753 156.120169,22.0747753 C155.823371,22.0747753 155.58118,22.313427 155.58118,22.6076966 L155.58118,23.1092697 C155.58118,23.4045506 155.823371,23.6426966 156.120169,23.6426966" id="Fill-16" fill="#FFFFFE"></path>
                <path d="M156.042303,30.2738764 L170.623315,30.2738764 L170.882191,30.2769101 C172.245843,30.2769101 173.550337,29.946236 174.188427,29.2924719 C174.745112,28.7226404 175.007022,27.9197191 174.968596,26.9241573 L174.968596,22.5020225 C174.968596,22.2497191 174.762303,22.0464607 174.508483,22.0464607 L170.436742,22.073764 L170.437753,27.3564607 C170.464551,27.8317416 170.375562,28.1831461 170.16927,28.3965169 C169.952865,28.6225281 169.571629,28.7393258 169.033652,28.7393258 C165.747135,28.7393258 159.525506,28.7332584 156.237978,28.7332584 C155.689888,28.7332584 155.58118,28.8733146 155.58118,29.1620225 L155.58118,29.817809 C155.58118,30.0696067 155.785449,30.2738764 156.042303,30.2738764" id="Fill-17" fill="#FFFFFE"></path>
                <path d="M156.880618,26.7573034 C168.444607,26.7573034 160.189888,26.7573034 171.836292,26.7573034 C172.134101,26.7573034 172.375281,26.5181461 172.375281,26.2238764 L172.375281,25.7223034 C172.375281,25.4280337 172.134101,25.1888764 171.836292,25.1888764 C160.083202,25.1888764 168.546742,25.1888764 156.880618,25.1888764 C156.582809,25.1888764 156.340618,25.4280337 156.340618,25.7223034 L156.340618,26.2238764 C156.340618,26.5181461 156.582809,26.7573034 156.880618,26.7573034" id="Fill-18" fill="#FFFFFE"></path>
                <path d="M153.981404,32.738764 C165.337079,32.738764 163.336348,32.738764 174.770899,32.738764 C175.064157,32.738764 175.300281,32.5107303 175.300281,32.2280899 L175.300281,31.7472472 C175.300281,31.465618 175.064157,31.236573 174.770899,31.236573 C163.231685,31.236573 165.435674,31.236573 153.981404,31.236573 C153.690169,31.236573 153.452022,31.465618 153.452022,31.7472472 L153.452022,32.2280899 C153.452022,32.5107303 153.690169,32.738764 153.981404,32.738764" id="Fill-19" fill="#FFFFFE"></path>
                <path d="M185.881854,18.533427 C198.326629,18.533427 196.85427,18.533427 209.387022,18.533427 C209.70809,18.533427 209.966966,18.2861798 209.966966,17.9812921 L209.966966,17.4605056 C209.966966,17.1561236 209.70809,16.9083708 209.387022,16.9083708 C196.738483,16.9083708 198.436348,16.9083708 185.881854,16.9083708 C185.560787,16.9083708 185.300899,17.1561236 185.300899,17.4605056 L185.300899,17.9807865 C185.300899,18.2861798 185.560787,18.533427 185.881854,18.533427" id="Fill-20" fill="#FFFFFE"></path>
                <path d="M181.41927,37.4708427 C193.865056,37.4708427 201.315843,37.4708427 213.848596,37.4708427 C214.170674,37.4708427 214.429551,37.2241011 214.429551,36.9192135 L214.429551,36.398427 C214.429551,36.0935393 214.170674,35.8462921 213.848596,35.8462921 C201.201573,35.8462921 193.973764,35.8462921 181.41927,35.8462921 C181.099213,35.8462921 180.838315,36.0935393 180.838315,36.398427 L180.838315,36.9192135 C180.838315,37.2241011 181.099213,37.4708427 181.41927,37.4708427" id="Fill-21" fill="#FFFFFE"></path>
                <path d="M186.421854,23.5258989 C198.866629,23.5258989 196.31427,23.5258989 208.846011,23.5258989 C209.16809,23.5258989 209.426461,23.2801685 209.426461,22.973764 L209.426461,22.4534831 C209.426461,22.1491011 209.16809,21.9013483 208.846011,21.9013483 C196.198483,21.9013483 198.976348,21.9013483 186.421854,21.9013483 C186.101798,21.9013483 185.841404,22.1491011 185.841404,22.4534831 L185.841404,22.973764 C185.841404,23.2801685 186.101798,23.5258989 186.421854,23.5258989" id="Fill-22" fill="#FFFFFE"></path>
                <path d="M186.421854,28.2610112 C198.866629,28.2610112 196.31427,28.2610112 208.846011,28.2610112 C209.16809,28.2610112 209.426461,28.0142697 209.426461,27.709382 L209.426461,27.1885955 C209.426461,26.8837079 209.16809,26.6359551 208.846011,26.6359551 C196.198483,26.6359551 198.976348,26.6359551 186.421854,26.6359551 C186.101798,26.6359551 185.841404,26.8837079 185.841404,27.1885955 L185.841404,27.7083708 C185.841404,28.0142697 186.101798,28.2610112 186.421854,28.2610112" id="Fill-23" fill="#FFFFFE"></path>
                <path d="M186.421854,32.995618 C198.866629,32.995618 196.31427,32.995618 208.846011,32.995618 C209.16809,32.995618 209.426461,32.7483708 209.426461,32.4434831 L209.426461,31.9232022 C209.426461,31.617809 209.16809,31.3710674 208.846011,31.3710674 C196.198483,31.3710674 198.976348,31.3710674 186.421854,31.3710674 C186.101798,31.3710674 185.841404,31.617809 185.841404,31.9232022 L185.841404,32.4434831 C185.841404,32.7483708 186.101798,32.995618 186.421854,32.995618" id="Fill-24" fill="#FFFFFE"></path>
                <path d="M181.101236,43.7025843 C186.106854,42.1816854 186.55736,40.5439888 188.989382,38.2975281 C189.049551,38.2403933 189.125899,38.2095506 189.204775,38.2095506 L194.953146,38.1433146 C195.08764,38.1433146 195.206966,38.2323034 195.258539,38.3698315 C195.308596,38.5068539 195.281292,38.6661236 195.186236,38.7717978 C191.191854,43.0781461 185.783258,44.4635393 181.216517,44.9266854 C181.122978,44.9388202 181.025899,44.9079775 180.95309,44.8392135 C180.879775,44.7699438 180.839326,44.6683146 180.839326,44.560618 L180.838315,44.061573 C180.838315,43.8881461 180.950056,43.7389888 181.101236,43.7025843" id="Fill-25" fill="#FFFFFE"></path>
                <path d="M214.166629,43.7025843 C209.161011,42.1816854 208.711517,40.5439888 206.279494,38.2975281 C206.21882,38.2403933 206.142978,38.2095506 206.064101,38.2095506 L200.314719,38.1433146 C200.181236,38.1433146 200.06191,38.2323034 200.010337,38.3698315 C199.95927,38.5068539 199.987584,38.6661236 200.08264,38.7717978 C204.076011,43.0781461 209.484607,44.4635393 214.05236,44.9266854 C214.144888,44.9388202 214.242978,44.9079775 214.315787,44.8392135 C214.38809,44.7699438 214.429551,44.6683146 214.429551,44.560618 L214.429551,44.061573 C214.429551,43.8881461 214.31882,43.7389888 214.166629,43.7025843" id="Fill-26" fill="#FFFFFE"></path>
                <path d="M176.474326,43.7258427 C171.673989,42.6948876 167.538539,40.3260674 163.869775,37.1472472 C163.804551,37.0916292 163.721629,37.0612921 163.635674,37.0612921 L157.981854,37.0612921 C157.836742,37.0612921 157.706292,37.1492697 157.65118,37.2842697 C157.595056,37.418764 157.625393,37.5755056 157.729045,37.6781461 C162.344831,42.3682584 170.10809,44.0221348 176.348933,44.9297191 C176.450056,44.9418539 176.55573,44.9120225 176.635618,44.843764 C176.714494,44.7760112 176.758989,44.6758989 176.758989,44.5692135 L176.76,44.0797753 C176.76,43.9078652 176.639663,43.7617416 176.474326,43.7258427" id="Fill-27" fill="#FFFFFE"></path>
                <path d="M173.97,36.1526966 C173.994775,36.1021348 174.008427,36.0470225 174.008427,35.9898876 L174.008427,35.4938764 C174.008427,35.297191 173.845618,35.1374157 173.644382,35.1374157 L157.434775,35.1374157 C157.233539,35.1374157 157.070225,35.297191 157.070225,35.4938764 L157.070225,35.9898876 C157.070225,36.1870787 157.233539,36.3473596 157.434775,36.3473596 L168.930506,36.3473596 C165.118652,40.3746067 160.325393,42.6271348 154.842472,43.7460674 C154.671573,43.7794382 154.551236,43.9245506 154.551236,44.093427 L154.551236,44.5752809 C154.551236,44.6799438 154.599775,44.7805618 154.680674,44.847809 C154.74691,44.903427 154.831854,44.9327528 154.915787,44.9327528 C154.938539,44.9327528 154.957247,44.9307303 154.978989,44.9276966 C161.149045,43.9017978 170.790169,42.233764 173.97,36.1526966" id="Fill-28" fill="#FFFFFE"></path>
                <g id="编组" transform="translate(15.168539, 0.000000)">
                    <mask id="mask-4" fill="white">
                        <use xlink:href="#path-3"></use>
                    </mask>
                    <g id="Clip-30"></g>
                    <path d="M26.8776404,14.5830337 C26.8776404,12.9342135 25.7096629,11.6019101 23.4561236,10.7115169 C23.4596629,10.71 23.4632022,10.7079775 23.4672472,10.7064607 C23.2164607,10.6088764 22.9682022,10.519382 22.7234831,10.4384831 C22.7174157,10.4405056 22.7113483,10.4425281 22.7062921,10.4440449 C22.5859551,10.4000562 22.4630899,10.3585955 22.3407303,10.3186517 C21.9716292,10.208427 21.6111236,10.1174157 21.2632584,10.0410674 C21.3138202,9.98393258 21.3648876,9.92780899 21.4174719,9.87269663 C22.9934831,8.21831461 24.1098876,7.86488764 24.0977528,7.81685393 C24.0527528,7.64342697 23.9819663,7.67730337 23.7407865,7.74050562 C23.7407865,7.74050562 22.5429775,8.12578652 20.9042697,9.3347191 L20.9032584,9.33320225 C20.6747191,9.49651685 20.4476966,9.6694382 20.2237079,9.85196629 C20.1028652,9.83426966 19.9830337,9.81808989 19.8667416,9.80393258 C19.3484831,9.74679775 18.8170787,9.71494382 18.2750562,9.70685393 L18.2679775,9.71292135 C18.2679775,9.71292135 17.7143258,9.70685393 16.8360674,9.76044944 C18.0308427,6.96741573 19.4041011,3.93269663 21.4690449,1.9744382 C23.0116854,0.554157303 24.2524719,0.199719101 24.2428652,0.156741573 C24.2241573,0.0657303371 24.1948315,0.0348876404 24.1326404,0.0333707865 L24.1275843,0.0333707865 C24.0795506,0.0338764045 24.0133146,0.0510674157 23.918764,0.0712921348 C23.918764,0.0712921348 22.8053933,0.373651685 21.2511236,1.41269663 L21.250618,1.41117978 C18.4596067,3.21117978 15.9593258,6.52196629 13.8407865,10.0976966 C13.4772472,10.1583708 13.1041011,10.2291573 12.7269101,10.3110674 C9.89342697,10.9749438 7.33196629,12.1403933 5.41870787,13.5935393 C3.13280899,15.3409551 1.95674157,17.4185393 1.95674157,19.0663483 C1.95674157,20.8658427 3.2597191,22.0702247 5.32162921,22.1298876 L5.34033708,22.1369663 C5.80146067,22.1576966 6.26713483,22.1137079 6.73129213,22.0191573 C8.29061798,21.7385393 9.80191011,20.8749438 11.0517978,19.8788764 C12.7223596,18.5450562 13.9530337,16.0943258 15.4880899,12.842191 C15.8617416,12.0508989 16.2323596,11.177191 16.6191573,10.2691011 C16.6191573,10.2691011 18.0490449,10.1179213 19.6958427,10.3004494 C17.6445506,12.126236 15.8000562,14.704382 14.1760112,17.5216854 L14.1744944,17.5216854 C13.815,18.0738202 13.4661236,18.653764 13.1268539,19.2650562 C11.4613483,22.2315169 10.3181461,25.2323596 8.35837079,27.5405056 C6.95477528,29.187809 5.28977528,30.0448315 3.82044944,30.0448315 C2.54022472,30.0210674 1.41421348,29.312191 1.41421348,28.6897753 C1.41421348,28.0183146 2.00679775,28.0082022 2.80719101,27.8185955 C3.19853933,27.7270787 3.74561798,27.381236 3.74561798,26.6425281 C3.74561798,25.9296067 3.13988764,25.3956742 2.28235955,25.3956742 C1.09668539,25.3956742 0.112247191,26.363427 0.112247191,27.6618539 C0.112247191,29.3941011 1.65134831,30.5393258 4.27550562,30.5393258 C6.98662921,30.5393258 9.86106742,29.4522472 11.9512921,27.6057303 C13.5510674,26.1884831 14.9561798,23.7817416 16.3931461,20.4841011 C16.8441573,19.4369663 17.2410674,18.4449438 17.6238202,17.5216854 L17.6051124,17.5216854 C18.6315169,14.9865169 19.5547753,12.2703371 20.8936517,10.4941011 C21.4741011,10.6220225 22.0459551,10.8030337 22.5596629,11.0578652 C22.562191,11.0568539 22.5642135,11.0558427 22.566236,11.0553371 C22.8423034,11.1726404 23.0774157,11.3192697 23.2735955,11.4947191 C23.5066854,11.6807865 23.6573596,11.886573 23.742809,12.105 C23.9415169,12.4917978 24.0355618,12.9554494 24.0355618,13.4949438 C24.0355618,16.857809 21.0311798,19.8910112 19.2342135,19.8910112 C18.7124157,19.8910112 18.1896067,19.5279775 17.6673034,19.5279775 C17.2749438,19.5279775 17.0464045,19.7595506 17.0464045,19.9567416 C17.0464045,20.4517416 17.6344382,20.385 18.8105056,20.4188764 C19.1366292,20.5832022 19.2342135,20.7808989 19.2342135,21.1439326 C19.2342135,23.0233146 16.6545506,25.3314607 16.6545506,27.9353933 C16.6545506,28.8348876 16.9685393,29.5301124 17.5014607,29.9694944 C17.9726966,30.4761236 18.7382022,30.8517978 20.1852809,30.8118539 C20.7950562,30.7951685 21.5817978,30.5534831 22.0348315,30.3224157 C22.4878652,30.0913483 22.883764,29.7611798 23.2225281,29.3329213 C23.5607865,28.9041573 23.8560674,28.3869101 24.109382,27.7801685 C24.3414607,27.2234831 24.525,26.6339326 24.715618,25.9660112 C24.7419101,25.8755056 24.6766854,25.7814607 24.5821348,25.7764045 L24.5796067,25.7764045 C24.5108427,25.7728652 24.4491573,25.8178652 24.4309551,25.8851124 C24.2848315,26.408427 24.1164607,26.8907865 23.9248315,27.3301685 C23.7200562,27.8019101 23.496573,28.2058989 23.2533708,28.5426404 C23.0101685,28.8803933 22.7517978,29.1423034 22.4802809,29.3298876 C22.2082584,29.5174719 21.9246067,29.6110112 21.6288202,29.6110112 C21.2096629,29.6110112 20.8997191,29.4502247 20.6989888,29.1281461 C20.5205056,28.8389326 20.2803371,28.3808427 20.648427,26.9448876 C20.935618,26.0008989 21.2597191,24.861236 21.2597191,23.6492697 C21.2597191,21.9680899 20.6393258,20.813764 19.5613483,20.2869101 C24.3298315,19.2650562 26.8776404,17.0226404 26.8776404,14.5830337 Z M13.0141011,11.5387079 L13.0141011,11.5387079 C11.4214045,14.4015169 9.84589888,17.1252809 7.87247191,19.2827528 C7.78196629,19.3742697 7.69752809,19.4617416 7.63129213,19.5396067 C7.62522472,19.5476966 7.61814607,19.5552809 7.61106742,19.5633708 C6.90117978,20.2879213 4.4494382,22.0616292 3.00691011,20.5609551 C2.72932584,20.2161236 2.57713483,19.7590449 2.57713483,19.1988202 C2.57713483,17.8144382 3.75269663,15.8359551 5.9738764,14.0223034 C7.66567416,12.6525843 10.0082022,11.5579213 12.6030337,10.9031461 C12.5954494,10.9167978 13.1819663,10.7929213 13.4726966,10.7276966 C13.3169663,10.997191 13.1647753,11.2676966 13.0141011,11.5387079 L13.0141011,11.5387079 Z" id="Fill-29" fill="#FFFFFE" mask="url(#mask-4)"></path>
                    <path d="M9.87320225,43.2905056 L9.85955056,43.3638202 C9.76247191,43.898764 9.37061798,44.217809 8.98129213,44.217809 C8.81494382,44.217809 8.50651685,44.217809 8.34775281,43.6570787 C8.26230337,43.3516854 7.95337079,41.9147191 7.84061798,41.5238764 C7.73696629,41.1664045 7.55797753,40.3457865 5.98752809,40.0793258 C6.89511236,39.8330899 8.56567416,39.1783146 8.56567416,37.7120225 C8.56567416,37.017809 8.21376404,36.4489888 7.54786517,36.0657303 C6.99573034,35.7476966 6.25550562,35.5727528 5.46370787,35.5727528 L1.91022472,35.5727528 L1.91022472,44.8467978 L3.56814607,44.8467978 L3.56814607,35.9216292 L4.73106742,35.9216292 C5.93696629,35.9216292 6.65646067,36.6896629 6.65646067,37.9784831 C6.65646067,38.9720225 6.13516854,39.8330899 5.01724719,39.9417978 C4.91713483,39.9519101 3.75926966,39.9508989 3.56814607,39.9458427 L3.56814607,40.2380899 C3.72033708,40.2264607 4.8488764,40.2183708 4.95707865,40.2183708 C5.91016854,40.2183708 6.03,41.635618 6.24337079,42.6655618 C6.57657303,44.2749438 7.35724719,44.9939326 8.235,44.9939326 C9.30691011,44.9939326 9.91365169,44.4241011 10.0597753,43.3911236 L10.0739326,43.2905056 L9.87320225,43.2905056" id="Fill-31" fill="#FFFFFE" mask="url(#mask-4)"></path>
                </g>
                <path d="M12.3264607,44.9474157 C11.3223034,44.9474157 10.4991573,44.6096629 9.94702247,43.9690449 C9.44494382,43.386573 9.17949438,42.5836517 9.17949438,41.6472472 C9.17949438,40.0919663 10.2291573,38.4396067 12.173764,38.4396067 C13.8498876,38.4396067 14.8510112,39.3957303 14.8510112,40.9965169 L14.8510112,41.2038202 L10.7241573,41.2038202 L10.7241573,41.3413483 C10.7241573,43.345618 11.3890449,44.3608989 12.7001124,44.3608989 C13.7351124,44.3608989 14.1916854,43.9493258 14.7180337,43.1393258 L14.7640449,43.0695506 L15.0168539,43.2202247 L14.978427,43.2945506 C14.4470225,44.3295506 13.455,44.9474157 12.3264607,44.9474157 Z M12.1601124,38.7480337 L12.1601124,38.7480337 C11.3602247,38.7480337 10.7908989,39.6060674 10.7276966,40.8948876 L13.3331461,40.8701124 C13.3174719,39.4609551 12.9235955,38.7480337 12.1601124,38.7480337 L12.1601124,38.7480337 Z" id="Fill-32" fill="#FFFFFE"></path>
                <g id="编组" transform="translate(0.000000, 34.887640)">
                    <mask id="mask-6" fill="white">
                        <use xlink:href="#path-5"></use>
                    </mask>
                    <g id="Clip-34"></g>
                    <path d="M0,9.90101124 L0,0.656797753 L3.14696629,0.656797753 C5.09713483,0.656797753 8.39831461,1.64325843 8.39831461,5.33882022 C8.39831461,6.7894382 7.79106742,7.98926966 6.64331461,8.80786517 C5.65432584,9.51269663 4.31393258,9.90101124 2.86988764,9.90101124 L0,9.90101124 Z M1.64123596,8.6258427 L1.64123596,8.6258427 C1.70494382,9.11477528 1.9238764,9.56629213 3.06404494,9.56629213 C5.26095506,9.56629213 6.52146067,8.02061798 6.52146067,5.32567416 C6.52146067,2.76623596 4.97426966,0.979382022 2.7591573,0.979382022 C2.48005618,0.979382022 1.9658427,0.990505618 1.64123596,1.00213483 L1.64123596,8.6258427 L1.64123596,8.6258427 Z" id="Fill-33" fill="#FFFFFE" mask="url(#mask-6)"></path>
                    <path d="M40.6385393,10.1007303 C39.2688202,10.1007303 38.1013483,9.65730337 37.2630337,8.81949438 C36.4161236,7.97511236 35.9686517,6.7894382 35.9686517,5.39191011 C35.9686517,2.59432584 38.0993258,0.48488764 40.9257303,0.48488764 C41.6376404,0.48488764 42.2666292,0.643651685 42.7985393,0.956123596 C43.3344944,1.27011236 43.6302809,1.66196629 43.7597191,1.86825843 L43.8214045,1.96533708 L43.0088764,2.21106742 L42.9770225,2.14382022 C42.6787079,1.5188764 41.8135955,0.846404494 40.617809,0.846404494 L40.5844382,0.846404494 C38.8173034,0.86511236 37.8040449,2.48258427 37.8040449,5.28522472 C37.8040449,7.75516854 39.0610112,9.37264045 41.0081461,9.40601124 C41.0314045,9.40702247 41.0551685,9.40702247 41.0799438,9.40702247 C42.4552247,9.40702247 43.4791011,8.70926966 44.1232584,7.33146067 L44.166236,7.23842697 L44.528764,7.48567416 L44.4969101,7.55342697 C43.9634831,8.71483146 42.8602247,10.1007303 40.6385393,10.1007303" id="Fill-35" fill="#FFFFFE" mask="url(#mask-6)"></path>
                    <path d="M49.9722472,10.1007303 C48.6025281,10.1007303 47.4355618,9.65730337 46.5957303,8.81949438 C45.7493258,7.97410112 45.3018539,6.7894382 45.3018539,5.39191011 C45.3018539,2.59432584 47.4330337,0.48488764 50.2594382,0.48488764 C50.9713483,0.48488764 51.5993258,0.643651685 52.1322472,0.956123596 C52.6676966,1.27011236 52.9639888,1.66196629 53.0929213,1.86825843 L53.1541011,1.96533708 L52.3420787,2.21106742 L52.3107303,2.14382022 C52.0124157,1.5188764 51.1473034,0.846404494 49.9510112,0.846404494 L49.9181461,0.846404494 C48.1505056,0.86511236 47.1377528,2.48258427 47.1377528,5.28522472 C47.1377528,7.75516854 48.3942135,9.37264045 50.3413483,9.40601124 C50.3651124,9.40702247 50.3883708,9.40702247 50.4126404,9.40702247 C51.7889326,9.40702247 52.8123034,8.70926966 53.4569663,7.33146067 L53.5004494,7.23842697 L53.8614607,7.48567416 L53.8311236,7.55342697 C53.2961798,8.71483146 52.1939326,10.1007303 49.9717416,10.1007303" id="Fill-36" fill="#FFFFFE" mask="url(#mask-6)"></path>
                    <polygon id="Fill-37" fill="#FFFFFE" mask="url(#mask-6)" points="55.9516854 9.90101124 57.5489326 9.90101124 57.5489326 0.656797753 55.9516854 0.656797753"></polygon>
                    <path d="M30.5848315,10.1123596 C28.2832584,10.1123596 26.8533708,9.03185393 26.8533708,7.29202247 L26.8533708,0.657808989 L28.4925843,0.657808989 L28.4925843,7.18938202 C28.4925843,7.62876404 28.5603371,8.25977528 28.883427,8.775 C29.2338202,9.33522472 29.8051685,9.61837079 30.5817978,9.61837079 C30.6202247,9.61837079 30.6586517,9.61735955 30.6975843,9.61685393 C31.416573,9.59207865 32.6239888,9.24320225 32.6239888,7.18938202 L32.6239888,0.657808989 L34.2626966,0.657808989 L34.2626966,7.29202247 C34.2626966,8.06814607 33.9385955,8.77044944 33.3490449,9.26696629 C32.7165169,9.80241573 31.8008427,10.0946629 30.7031461,10.1113483 C30.6632022,10.1123596 30.6242697,10.1123596 30.5853371,10.1123596 L30.5848315,10.1123596" id="Fill-38" fill="#FFFFFE" mask="url(#mask-6)"></path>
                </g>
                <path d="M147.985281,44.4074157 C147.985281,44.6986517 148.225955,44.9327528 148.521236,44.9327528 L152.299719,44.9327528 C152.597022,44.9327528 152.836685,44.6986517 152.836685,44.4074157 C152.838708,32.6300562 152.837697,34.5261236 152.837697,22.5712921 C152.837697,22.281573 152.596011,22.0459551 152.299719,22.0459551 L148.521236,22.0459551 C148.225955,22.0459551 147.985281,22.281573 147.985281,22.5712921 C147.985281,25.7329213 147.985281,41.5228652 147.985281,44.4074157" id="Fill-39" fill="#FFFFFE"></path>
                <path d="M185.300899,36.3038764 C185.300899,36.5951124 185.541067,36.8292135 185.836348,36.8292135 L189.902022,36.8292135 C190.198315,36.8292135 190.438989,36.5951124 190.438989,36.3038764 C190.44,24.5265169 190.438989,29.7879775 190.438989,17.8336517 C190.438989,17.5439326 190.198315,17.3083146 189.902022,17.3083146 L185.836348,17.3083146 C185.541067,17.3083146 185.300899,17.5439326 185.300899,17.8336517 C185.300899,20.9952809 185.300899,33.4193258 185.300899,36.3038764" id="Fill-40" fill="#FFFFFE"></path>
                <path d="M204.828371,36.3038764 C204.828371,36.5951124 205.068539,36.8292135 205.36382,36.8292135 L209.429494,36.8292135 C209.725787,36.8292135 209.966966,36.5951124 209.966966,36.3038764 C209.967978,24.5265169 209.966966,29.7879775 209.966966,17.8336517 C209.966966,17.5439326 209.725787,17.3083146 209.429494,17.3083146 L205.36382,17.3083146 C205.068539,17.3083146 204.828371,17.5439326 204.828371,17.8336517 C204.828371,20.9952809 204.828371,33.4193258 204.828371,36.3038764" id="Fill-41" fill="#FFFFFE"></path>
                <path d="M148.324045,17.3472472 L144.373652,17.3472472 C144.054607,17.3472472 143.79573,17.5666854 143.79573,17.8366854 C143.79573,20.7819101 143.79573,18.5172472 143.79573,21.2046067 C143.79573,21.475618 144.054607,21.6930337 144.373652,21.6930337 L148.324045,21.6930337 C148.642584,21.6930337 148.901461,21.475618 148.901461,21.2046067 C148.901461,18.5172472 148.901461,20.7819101 148.901461,17.8366854 C148.901461,17.5666854 148.642584,17.3472472 148.324045,17.3472472" id="Fill-42" fill="#FFFFFE"></path>
                <path d="M176.852528,17.3472472 L172.90264,17.3472472 C172.583596,17.3472472 172.324719,17.5666854 172.324719,17.8366854 C172.324719,20.7819101 172.324719,18.5172472 172.324719,21.2046067 C172.324719,21.475618 172.583596,21.6930337 172.90264,21.6930337 L176.852528,21.6930337 C177.171573,21.6930337 177.430449,21.475618 177.430449,21.2046067 C177.430449,18.5172472 177.430449,20.7819101 177.430449,17.8366854 C177.430449,17.5666854 177.171573,17.3472472 176.852528,17.3472472" id="Fill-43" fill="#FFFFFE"></path>
                <path d="M176.921798,31.236573 L173.49118,31.236573 C173.214101,31.236573 172.989607,31.427191 172.989607,31.6617978 C172.989607,34.2197191 172.989607,32.0278652 172.989607,34.3612921 C172.989607,34.5974157 173.214101,34.7860112 173.49118,34.7860112 L176.921798,34.7860112 C177.198371,34.7860112 177.423371,34.5974157 177.423371,34.3612921 C177.423371,32.0278652 177.423371,34.2197191 177.423371,31.6617978 C177.423371,31.427191 177.198371,31.236573 176.921798,31.236573" id="Fill-44" fill="#FFFFFE"></path>
                <path d="M157.264382,31.236573 L153.833764,31.236573 C153.556685,31.236573 153.332191,31.427191 153.332191,31.6617978 C153.332191,34.2197191 153.332191,32.0278652 153.332191,34.3612921 C153.332191,34.5974157 153.556685,34.7860112 153.833764,34.7860112 L157.264382,34.7860112 C157.540955,34.7860112 157.765955,34.5974157 157.765955,34.3612921 C157.765955,32.0278652 157.765955,34.2197191 157.765955,31.6617978 C157.765955,31.427191 157.540955,31.236573 157.264382,31.236573" id="Fill-45" fill="#FFFFFE"></path>
                <path d="M162.588034,15.1033146 L158.638146,15.1033146 C158.319101,15.1033146 158.060225,15.3227528 158.060225,15.5922472 C158.060225,18.5379775 158.060225,15.0330337 158.060225,17.7208989 C158.060225,17.9919101 158.319101,18.2093258 158.638146,18.2093258 L162.588034,18.2093258 C162.907079,18.2093258 163.165955,17.9919101 163.165955,17.7208989 C163.165955,15.0330337 163.165955,18.5379775 163.165955,15.5922472 C163.165955,15.3227528 162.907079,15.1033146 162.588034,15.1033146" id="Fill-46" fill="#FFFFFE"></path>
            </g>
        </g>
    </g>
</svg>