<?xml version="1.0" encoding="UTF-8"?>
<svg width="32px" height="32px" viewBox="0 0 32 32" version="1.1" xmlns="http://www.w3.org/2000/svg" xmlns:xlink="http://www.w3.org/1999/xlink">
    <!-- Generator: Sketch 57.1 (83088) - https://sketch.com -->
    <title>故障</title>
    <desc>Created with Sketch.</desc>
    <g id="页面-1" stroke="none" stroke-width="1" fill="none" fill-rule="evenodd">
        <g id="设备监控系统" transform="translate(-988.000000, -693.000000)">
            <g id="喷胶机实时稼动率" transform="translate(0.000000, 580.000000)">
                <g id="断电" transform="translate(980.000000, 105.000000)">
                    <g id="故障" transform="translate(8.000000, 8.000000)">
                        <path d="M0,16 C0,24.836556 7.163444,32 16,32 C24.836556,32 32,24.836556 32,16 C32,7.163444 24.836556,0 16,0 C7.163444,0 0,7.163444 0,16 Z" id="路径" fill="#000000" fill-rule="nonzero" opacity="0.4"></path>
                        <g id="关闭" transform="translate(6.000000, 6.000000)" fill="#FFFFFF" fill-rule="nonzero">
                            <path d="M16.5843358,2.57508685 C16.1764196,2.17522969 15.5680791,2.05987399 15.0420985,2.28264226 C14.5161178,2.50541054 14.1756796,3.02260193 14.1790349,3.59380251 C14.1783515,4.0146343 14.3650353,4.4139302 14.6883928,4.68326234 C16.5809414,6.39742551 17.4028829,8.99843768 16.8390148,11.488849 C16.2713631,14.0744536 14.2863192,16.114333 11.7171387,16.7522133 C9.59691077,17.3043291 7.34051548,16.8429228 5.60722649,15.502808 C3.87393749,14.1626932 2.85937425,12.0951156 2.85997188,9.90418017 C2.87297739,7.92491399 3.71456154,6.04161286 5.1803798,4.71155999 C5.49194338,4.43329539 5.67600409,4.03961 5.68973764,3.62210018 C5.69904452,3.05181624 5.36502553,2.53170663 4.84255712,2.30293348 C4.32008872,2.07416033 3.71134499,2.1814626 3.29858557,2.57508685 C0.135870576,5.42825819 -0.869672699,9.97308655 0.794242868,13.8941499 C1.76219066,16.3018034 3.69801726,18.1914166 6.12835133,19.1009189 C10.5978799,21.0131644 15.7945208,19.3988169 18.3937906,15.2906342 C20.9930603,11.1824514 20.2264276,5.79510796 16.5843358,2.57508685 Z" id="路径"></path>
                            <path d="M9.93438629,8.48929728 C10.7158045,8.48929728 11.3492692,7.85583264 11.3492692,7.07441441 L11.3492692,1.41488289 C11.3491776,0.633529409 10.7157398,0.000165822039 9.93438628,0.000165822039 C9.1530328,0.000165822039 8.51959497,0.633529409 8.5195034,1.41488289 L8.5195034,7.07441441 C8.5195034,7.85583265 9.15296806,8.48929728 9.93438629,8.48929728 L9.93438629,8.48929728 Z" id="路径"></path>
                        </g>
                        <circle id="椭圆形" fill="#FFFFFF" cx="12.5" cy="18.5" r="1.5"></circle>
                        <circle id="椭圆形" fill="#FFFFFF" cx="16.5" cy="18.5" r="1.5"></circle>
                        <circle id="椭圆形" fill="#FFFFFF" cx="20.5" cy="18.5" r="1.5"></circle>
                    </g>
                </g>
            </g>
        </g>
    </g>
</svg>